# xmcd CD database file
#
# Track frame offsets:
#	150
#	21166
#	40236
#	60671
#	73942
#	88393
#	112679
#	140595
#	173605
#	195676
#	212885
#	228975
#	248579
#	263129
#	277581
#	290437
#	306180
#
# Disc length: 4413 seconds
#
# Revision: 0
# Processed by: cddbd v1.5.2PL0 Copyright (c) Steve Scherf et al.
# Submitted via: CDex 1.70beta2
#
DISCID=f2113b11
DTITLE=Ketil Bjørnstad - Rainbow Sessions - The Way Through the Woods
DYEAR=2004
DGENRE=Jazz
TTITLE0=Solace (The Way Through the Woods Version)
TTITLE1=The Secret
TTITLE2=The Blue Room in Vika
TTITLE3=The Day After
TTITLE4=Libidel's Song before the Mirror
TTITLE5=By the Fjord
TTITLE6=The Way Through the Woods
TTITLE7=Intermezzo Op.118 No.2
TTITLE8=Barcarolle
TTITLE9=I've Never Sailed the Amazon
TTITLE10=The White Hotel
TTITLE11=The Birth
TTITLE12=The First Night
TTITLE13=The Change
TTITLE14=Nocturne
TTITLE15=The Old Story
TTITLE16=Blue Man
EXTD=YEAR: 2004
EXTT0=
EXTT1=
EXTT2=
EXTT3=
EXTT4=
EXTT5=
EXTT6=
EXTT7=
EXTT8=
EXTT9=
EXTT10=
EXTT11=
EXTT12=
EXTT13=
EXTT14=
EXTT15=
EXTT16=
PLAYORDER=
